# xmcd
#
# Track frame offsets:
#	150
#	12982
#	26533
#	40510
#	55074
#	68370
#	80586
#	91781
#	103755
#	118315
#	135128
#	148955
#	164372
#	179319
#	193806
#	206096
#	222381
#	233240
#
# Disc length: 3317 seconds
#
# Revision: 0
# Processed by: cddbd v1.5.2PL0 Copyright (c) Steve Scherf et al.
# Submitted via: EasyCDDAExtractor 2011.3.0.0
#
DISCID=f80cf312
DTITLE=當•威廉姆斯 - 當•威廉姆斯30週年紀念版
DYEAR=1900
DGENRE=Country
TTITLE0=You`re My Best Friend你是我最好的朋友
TTITLE1=Reason To Be理由
TTITLE2=I’m Just A Country Boy鄉村男孩
TTITLE3=Listen To the Radio聽廣播
TTITLE4=I’m Getting Good At Missing You相思成習
TTITLE5=Nobody But You非你莫屬
TTITLE6=It Must Be Love這就是愛
TTITLE7=The Ties That Bind羈絆
TTITLE8=Tears Of The Lonely孤獨的眼淚
TTITLE9=I Sing For Joy歡樂頌
TTITLE10=She`s A Heart Full猜不透她
TTITLE11=Don`t You Think It`s Time正是時候
TTITLE12=What`s the Score得分多少
TTITLE13=I Don`t Wanna Let You Go請不要離開
TTITLE14=Some Broken Hearts Never Mend傷心難愈
TTITLE15=If I Needed You假如我需要你
TTITLE16=Turn out the Lights(and Love Me Tonight)熄燈（愛我）
TTITLE17=The Rose玫瑰
EXTD=
EXTT0=
EXTT1=
EXTT2=
EXTT3=
EXTT4=
EXTT5=
EXTT6=
EXTT7=
EXTT8=
EXTT9=
EXTT10=
EXTT11=
EXTT12=
EXTT13=
EXTT14=
EXTT15=
EXTT16=
EXTT17=
PLAYORDER=
